<?xml version="1.0" encoding="utf-8"?>
<!-- Generator: Adobe Illustrator 16.0.3, SVG Export Plug-In . SVG Version: 6.00 Build 0)  -->
<!DOCTYPE svg PUBLIC "-//W3C//DTD SVG 1.1//EN" "http://www.w3.org/Graphics/SVG/1.1/DTD/svg11.dtd">
<svg version="1.1" id="Layer_1" xmlns="http://www.w3.org/2000/svg" xmlns:xlink="http://www.w3.org/1999/xlink" x="0px" y="0px"
	 width="220px" height="73px" viewBox="0 0 220 73" enable-background="new 0 0 220 73" xml:space="preserve">
<g>
	<path fill="#4258A7" stroke="#000000" stroke-miterlimit="10" d="M207.758,33.312c0,11.607-7.592,21.478-27.085,21.016
		c-19.196-0.455-27.086-9.409-27.086-21.016s12.126-21.016,27.086-21.016C195.631,12.295,207.758,21.705,207.758,33.312z"/>
	<path fill="#586CA6" stroke="#000000" stroke-miterlimit="10" d="M198.199,35.057c0,10.015-2.276,16.388-15.175,16.54
		c-8.757,0.103-17.776-5.516-17.905-15.022c-0.152-11.229,5.159-19.119,16.236-19.119C190.113,17.455,198.199,25.549,198.199,35.057
		z"/>
	<path fill="#FFFFFF" stroke="#000000" stroke-miterlimit="10" d="M184.846,38.092c0,5.531-4.127,9.787-9.825,9.787
		c-5.699,0-10.356-3.801-10.356-9.332c0-5.531,4.703-11.229,8.877-11.267C179.239,27.228,184.846,32.56,184.846,38.092z"/>
	<path fill="#FFFFFF" stroke="#000000" stroke-miterlimit="10" d="M187.02,36.473c0,5.254,3.92,9.297,9.333,9.297
		c5.414,0,9.839-3.611,9.839-8.865s-4.469-10.667-8.433-10.704C192.345,26.152,187.02,31.218,187.02,36.473z"/>
	<ellipse stroke="#000000" stroke-miterlimit="10" cx="177.638" cy="36.726" rx="0.835" ry="0.759"/>
	<circle stroke="#000000" stroke-miterlimit="10" cx="198.198" cy="36.27" r="0.865"/>
	<path stroke="#000000" stroke-linecap="round" stroke-linejoin="round" stroke-miterlimit="10" d="M171.111,24.011
		c0,0,1.15-2.458,0.949-5.457c-0.25-3.728-5.42-13.696-14.574-17.001C173.475,12.096,171.111,24.011,171.111,24.011z"/>
	<path stroke="#000000" stroke-linecap="round" stroke-linejoin="round" stroke-miterlimit="10" d="M188.26,20.717
		c0,0,6.104-7.003,8.346-7.662c5.158-1.518,12.063,0.531,15.932,2.731c-5.521-1.928-11.092-2.651-14.719-1.745
		C194.178,14.951,188.26,20.717,188.26,20.717z"/>
	<path stroke="#000000" stroke-linecap="round" stroke-linejoin="round" stroke-miterlimit="10" d="M207.758,35.739
		c2.484,0.531,5.586,6.563,6.677,11.532c1.242,0.095,3.233,0.209,4.173,0.986c-4.012-0.322-4.174,0.152-5.387,0.152
		c-1.043-4.771-3.537-10.498-5.652-11.286L207.758,35.739z"/>
	<path stroke="#000000" stroke-linecap="round" stroke-linejoin="round" stroke-miterlimit="10" d="M206.402,41.306
		c2.93,1.593,4.211,10.328,4.153,12.747c0.739,0.284,3.927,1.109,4.125,1.991c-2.36-0.711-4.979-1.167-5.69-1.053
		c-0.142-6.458-1.793-11.551-3.158-12.206C205.918,42.273,206.402,41.306,206.402,41.306z"/>
	<path fill="none" stroke="#000000" stroke-miterlimit="10" d="M210.556,54.053"/>
	<line fill="none" stroke="#000000" stroke-miterlimit="10" x1="205.832" y1="42.786" x2="206.402" y2="41.306"/>
	<path stroke="#000000" stroke-linecap="round" stroke-linejoin="round" stroke-miterlimit="10" d="M203.301,46.655
		c3.044,2.532,3.044,11.722,1.536,16.16c-0.398,0.398,3.329,1.764,3.87,3.642c-2.305-1.593-5.121-2.788-5.719-2.788
		c1.393-6.345,2.048-13.913-0.826-15.904C202.391,47.537,202.959,47.11,203.301,46.655z"/>
	<path stroke="#000000" stroke-linecap="round" stroke-linejoin="round" stroke-miterlimit="10" d="M161.932,44.578
		c-7.055,8.137-4.779,17.355-1.649,22.59c-1.649,1.479-3.13,3.414-3.13,4.097c1.594-1.252,3.984-3.813,4.837-3.813
		C158.006,61.365,157.779,53.74,161.932,44.578z"/>
	<path fill="none" stroke="#000000" stroke-miterlimit="10" d="M160.055,40.197"/>
	<path fill="none" stroke="#000000" stroke-miterlimit="10" d="M152.941,59.543"/>
	<path fill="none" stroke="#000000" stroke-miterlimit="10" d="M160.055,40.197"/>
	<path fill="none" stroke="#000000" stroke-miterlimit="10" d="M155.332,60.169"/>
	<path fill="none" stroke="#000000" stroke-miterlimit="10" d="M152.941,59.543"/>
	<path fill="none" stroke="#000000" stroke-miterlimit="10" d="M160.055,40.197"/>
	<path stroke="#000000" stroke-linecap="round" stroke-linejoin="round" stroke-miterlimit="10" d="M160.055,40.197
		c-6.658,4.04-8.877,12.177-7.283,19.404c-1.053,1.138-2.561,0.938-3.813,2.958c2.02-1.167,3.643-1.849,5.576-2.162
		C153.682,52.943,152.715,48.163,160.055,40.197z"/>
	<path stroke="#000000" stroke-linecap="round" stroke-linejoin="round" stroke-miterlimit="10" d="M158.178,36.669
		c-9.845,4.012-10.328,12.319-10.613,17.042c-0.797,0.654-2.703,0.598-3.926,1.963c1.85-0.199,3.813-0.938,5.434-1.109
		C148.931,50.069,149.271,43.099,158.178,36.669z"/>
	<path stroke="#000000" stroke-miterlimit="10" d="M180.653,51.52c-0.038,0.939,0.304,1.822,1.081,2.22
		c-0.143-0.901-0.37-1.688-0.246-2.153C181.242,51.587,180.871,51.521,180.653,51.52z"/>
	<path stroke="#000000" stroke-miterlimit="10" d="M190.849,50.392c0.237,0.531-0.255,1.764-0.493,2.039
		c-0.182-0.446-0.275-1.365-0.342-1.707C190.355,50.553,190.649,50.42,190.849,50.392z"/>
</g>
<g>
	<path d="M6.325,21.533c0.093-0.186,0.441-0.336,1.046-0.448c0.604-0.112,1.098-0.169,1.484-0.169l3.068,0.239
		c1.022,0.08,1.965,0.296,2.829,0.648c0.863,0.352,1.746,0.866,2.649,1.543c0.638,0.492,1.148,1.235,1.534,2.231
		c0.385,0.996,0.578,1.986,0.578,2.969c0,3.081-1.527,5.611-4.582,7.59c-0.107,0.04-0.212,0.153-0.319,0.338
		c-0.08,0.147-0.153,0.239-0.219,0.28c-0.292,0.186-0.538,0.332-0.737,0.438c-0.199,0.107-0.479,0.223-0.837,0.349
		s-0.761,0.242-1.206,0.348c-0.445,0.106-0.946,0.213-1.504,0.319c-0.093,0.027-0.229,0.097-0.409,0.209
		c-0.179,0.112-0.295,0.169-0.348,0.169c-0.053,0-0.093-0.013-0.12-0.041c-0.159,0-0.963,0.299-2.411,0.897l-0.239-0.259
		c-0.438,0.094-0.757,0.313-0.957,0.658c0,0.212-0.143,0.409-0.428,0.587c-0.286,0.18-0.627,0.269-1.026,0.269
		c-0.279,0-0.478-0.066-0.598-0.198c-0.12-0.134-0.346-0.2-0.677-0.2c-0.053,0-0.213,0.027-0.479,0.08v-0.08
		c0-0.172-0.05-0.368-0.149-0.587c-0.1-0.219-0.15-0.362-0.15-0.428c0-0.133,0.192-0.355,0.578-0.667
		c0.385-0.312,0.578-0.542,0.578-0.688v-0.04c0.345-3.771,0.518-7.523,0.518-11.255c0-7.026-0.199-12.046-0.598-15.061
		c-0.279-0.398-0.418-0.658-0.418-0.777l0.04-0.458c0-0.105-0.02-0.352-0.06-0.737C2.719,9.215,2.7,8.863,2.7,8.544
		c0-0.465,0.169-0.724,0.508-0.777c0.339-0.053,0.618-0.113,0.836-0.179c0.22-0.066,0.342-0.1,0.369-0.1
		c0.08,0,0.199,0.029,0.359,0.09C4.931,7.637,5.063,7.671,5.17,7.677c0.106,0.007,0.451,0.216,1.036,0.628
		C6.338,8.89,6.405,9.281,6.405,9.48c0,0.146-0.013,0.232-0.04,0.259c-0.013,0.053-0.053,0.172-0.12,0.358
		c-0.545,1.488-0.817,3.772-0.817,6.853c0,1.78,0.056,2.989,0.169,3.626c0.113,0.638,0.315,0.956,0.607,0.956H6.325z M5.967,23.366
		c-0.252,5.751-0.378,9.383-0.378,10.897c0,1.288,0.192,2.151,0.578,2.59c0.385,0.438,1.049,0.657,1.992,0.657
		c0.889,0,1.975-0.195,3.257-0.587c1.282-0.391,2.441-1.082,3.477-2.072c1.036-0.989,1.73-1.939,2.082-2.849
		c0.352-0.909,0.528-1.83,0.528-2.759c0-1.62-0.724-3.025-2.171-4.213c-1.448-1.188-2.982-1.783-4.602-1.783h-0.717l-1.434-0.08
		c-0.571,0-1.089,0.174-1.554,0.519c-0.199-0.319-0.445-0.478-0.737-0.478C6.139,23.207,6.033,23.26,5.967,23.366z"/>
	<path d="M39.205,26.952c0.106,0.106,0.159,0.259,0.159,0.458c0,0.385-0.106,0.671-0.319,0.856c0.027,0.014,0.04,0.054,0.04,0.121
		c0,0.212-0.286,0.318-0.856,0.318H37.95c-0.08,0-0.159,0.046-0.239,0.139c-0.08,0.093-0.14,0.139-0.179,0.139
		c-0.014,0-0.077-0.039-0.189-0.119c-0.113-0.08-0.282-0.133-0.508-0.16l-0.239-0.239c-0.292,0.08-0.578,0.119-0.856,0.119
		c-0.213,0-0.508-0.026-0.887-0.08c-0.378-0.052-0.654-0.08-0.827-0.08c-0.146,0-0.455,0.041-0.927,0.12
		c-0.471,0.08-0.886,0.119-1.245,0.119l-1.953-0.08c-1.049,0-1.999,0.094-2.849,0.28c-0.12,0.066-0.296,0.116-0.528,0.149
		c-0.232,0.033-0.358,0.139-0.378,0.319c-0.021,0.179-0.157,0.322-0.409,0.428c-0.133,0.544-0.199,1.036-0.199,1.474
		c0,0.345,0.1,1.003,0.299,1.972c0.199,0.97,0.465,1.661,0.797,2.072c0.08,0.094,0.65,0.519,1.713,1.275
		c0.677,0.505,1.411,0.887,2.201,1.146c0.79,0.259,1.704,0.388,2.739,0.388c0.412,0,0.923-0.033,1.534-0.1l0.836-0.1h1.295
		c0.133,0,0.382-0.119,0.748-0.358c0.365-0.239,0.733-0.378,1.105-0.419c0.159,0.373,0.239,0.698,0.239,0.977
		c0,0.625-0.189,1.169-0.568,1.634c-0.378,0.465-0.813,0.698-1.305,0.698l-0.418-0.08L35.5,40.379h-1.076
		c-0.505,0-1.747-0.213-3.726-0.638c-1.979-0.424-3.44-0.982-4.383-1.673c-0.943-0.69-1.633-1.583-2.072-2.679
		s-0.657-2.154-0.657-3.177c0-1.381,0.266-2.786,0.797-4.214c0.531-1.427,1.135-2.537,1.813-3.327
		c0.678-0.79,1.707-1.61,3.088-2.461c0.133-0.065,0.335-0.202,0.608-0.408c0.272-0.207,0.535-0.31,0.787-0.31l0.658,0.041
		c0.279-0.186,0.78-0.342,1.504-0.469c0.723-0.125,1.311-0.189,1.763-0.189c0.81,0,1.696,0.298,2.66,0.897
		c0.962,0.597,1.544,1.846,1.743,3.745c0.04,0.332,0.096,0.601,0.169,0.807c0.073,0.206,0.109,0.322,0.109,0.348
		C39.285,26.752,39.258,26.846,39.205,26.952z M31.037,22.589c-0.08,0.12-0.458,0.338-1.136,0.657
		c-0.332,0.239-0.651,0.512-0.956,0.817c-0.306,0.306-0.605,0.634-0.896,0.986c-0.292,0.353-0.548,0.667-0.767,0.947
		c-0.219,0.278-0.389,0.487-0.508,0.627c-0.12,0.139-0.18,0.263-0.18,0.368c0,0.147,0.093,0.253,0.279,0.319l0.259,0.1h1.474
		l6.933-0.26c0.889,0,1.334-0.391,1.334-1.175c0-0.823-0.163-1.544-0.488-2.162c-0.326-0.617-1.179-1.105-2.56-1.464
		c-0.16,0-0.386-0.013-0.677-0.04c-0.292-0.027-0.505-0.04-0.638-0.04C32.392,22.27,31.9,22.376,31.037,22.589z"/>
	<path d="M60.471,42.172l-1.793,2.49H58.14c-0.239-0.159-0.458-0.239-0.657-0.239c-0.173-0.372-0.346-0.903-0.518-1.594
		c0.159-0.412,0.239-0.81,0.239-1.195l0.04-2.231c0-0.863-0.139-1.64-0.418-2.331c-0.08,0.053-0.206,0.086-0.378,0.1
		c-0.172,0.013-0.299,0.047-0.378,0.099c-1.315,0.956-2.431,1.564-3.347,1.823c-0.917,0.259-1.846,0.388-2.789,0.388
		c-1.461,0-2.74-0.352-3.835-1.055c-1.096-0.704-1.81-1.607-2.142-2.709c-0.332-1.103-0.498-1.973-0.498-2.61
		c0-1.049,0.046-1.775,0.139-2.181c0.093-0.405,0.346-1.022,0.758-1.853c0.413-0.83,0.742-1.487,0.988-1.972
		c0.246-0.485,0.751-1.06,1.517-1.724c0.765-0.664,1.606-1.281,2.524-1.853c0.812-0.239,1.673-0.561,2.584-0.966
		c0.911-0.405,1.533-0.627,1.866-0.668l0.12,0.28c0.585-0.345,1.118-0.519,1.597-0.519h0.04c0.333,0,0.499-0.259,0.499-0.777
		c0-1.7-0.08-3.496-0.239-5.389c-0.159-1.892-0.279-2.941-0.358-3.147c-0.08-0.206-0.279-0.381-0.598-0.527
		c-0.08-0.252-0.12-0.552-0.12-0.897c0-1.009,0.337-1.514,1.011-1.514c0.634-0.425,1.096-0.637,1.387-0.637
		c0.211,0,0.466,0.113,0.763,0.339c0.297,0.226,0.472,0.341,0.525,0.349c0.053,0.007,0.079,0.089,0.079,0.249
		c0,0.067-0.057,0.293-0.169,0.678c-0.113,0.385-0.177,0.756-0.189,1.116c-0.266,0.186-0.398,0.524-0.398,1.016l0.042,1.016
		c0,2.072,0.076,3.726,0.228,4.961c0.152,1.235,0.229,1.892,0.229,1.972c0,0.054-0.013,0.14-0.04,0.259s-0.04,0.212-0.04,0.279
		c0,0.252,0.105,0.512,0.316,0.777l0.295-0.12c0.053,0.187,0.244,0.318,0.573,0.398c0.631,0.133,0.914,0.402,0.847,0.807
		c-0.067,0.406-0.113,0.734-0.139,0.987h-0.16c-0.146,0-0.322,0.043-0.528,0.129c-0.206,0.087-0.342,0.13-0.408,0.13
		c-0.107,0-0.213-0.027-0.319-0.08c0-0.027-0.013-0.04-0.04-0.04c-0.146,0-0.219,1.302-0.219,3.905c0,1.594,0.126,3.387,0.379,5.379
		c0.212,0.292,0.385,0.551,0.518,0.777c-0.08,0.491-0.119,0.943-0.119,1.354c0,0.505,0.05,1.175,0.149,2.012
		c0.1,0.837,0.15,1.415,0.15,1.734l-0.06,0.498c0,0.106,0.063,0.186,0.189,0.239c0.126,0.053,0.189,0.106,0.189,0.16v0.04
		l-0.08,0.26L60.471,42.172z M55.543,23.724c-0.306-0.066-0.606-0.113-0.899-0.139l-0.859-0.1c-0.24,0-0.52,0.041-0.839,0.121
		l-0.44,0.119h-0.899c-1.786,0.558-3.275,1.651-4.467,3.277c-1.193,1.627-1.789,3.257-1.789,4.891c0,1.7,0.502,3.091,1.506,4.174
		c1.004,1.083,2.325,1.623,3.962,1.623c1.357,0,2.564-0.202,3.622-0.607c1.058-0.405,1.68-0.886,1.866-1.444
		c0.187-0.558,0.28-1.714,0.28-3.467c0-1.858-0.128-4.495-0.383-7.909c-0.387-0.133-0.606-0.212-0.66-0.239V23.724z"/>
	<path d="M71.596,21.533c0.092-0.186,0.441-0.336,1.046-0.448c0.604-0.112,1.099-0.169,1.484-0.169l3.068,0.239
		c1.022,0.08,1.965,0.296,2.829,0.648c0.863,0.352,1.746,0.866,2.65,1.543c0.637,0.492,1.148,1.235,1.534,2.231
		s0.578,1.986,0.578,2.969c0,3.081-1.527,5.611-4.582,7.59c-0.106,0.04-0.212,0.153-0.318,0.338c-0.08,0.147-0.153,0.239-0.219,0.28
		c-0.292,0.186-0.538,0.332-0.737,0.438c-0.199,0.107-0.478,0.223-0.836,0.349c-0.359,0.126-0.761,0.242-1.206,0.348
		c-0.445,0.106-0.946,0.213-1.504,0.319c-0.093,0.027-0.229,0.097-0.409,0.209c-0.179,0.112-0.296,0.169-0.349,0.169
		s-0.093-0.013-0.119-0.041c-0.16,0-0.963,0.299-2.411,0.897l-0.239-0.259c-0.438,0.094-0.757,0.313-0.956,0.658
		c0,0.212-0.143,0.409-0.429,0.587c-0.286,0.18-0.627,0.269-1.026,0.269c-0.279,0-0.478-0.066-0.598-0.198
		c-0.119-0.134-0.346-0.2-0.677-0.2c-0.053,0-0.212,0.027-0.478,0.08v-0.08c0-0.172-0.05-0.368-0.149-0.587
		c-0.1-0.219-0.149-0.362-0.149-0.428c0-0.133,0.192-0.355,0.578-0.667s0.578-0.542,0.578-0.688v-0.04
		c0.346-3.771,0.518-7.523,0.518-11.255c0-7.026-0.199-12.046-0.598-15.061c-0.279-0.398-0.418-0.658-0.418-0.777l0.04-0.458
		c0-0.105-0.02-0.352-0.06-0.737c-0.04-0.385-0.06-0.736-0.06-1.055c0-0.465,0.169-0.724,0.508-0.777
		c0.339-0.053,0.618-0.113,0.837-0.179c0.219-0.066,0.342-0.1,0.369-0.1c0.08,0,0.199,0.029,0.358,0.09
		c0.16,0.059,0.292,0.093,0.398,0.099c0.106,0.007,0.451,0.216,1.036,0.628c0.132,0.584,0.199,0.976,0.199,1.175
		c0,0.146-0.013,0.232-0.04,0.259c-0.013,0.053-0.053,0.172-0.119,0.358c-0.545,1.488-0.817,3.772-0.817,6.853
		c0,1.78,0.056,2.989,0.169,3.626s0.316,0.956,0.608,0.956H71.596z M71.237,23.366c-0.252,5.751-0.378,9.383-0.378,10.897
		c0,1.288,0.192,2.151,0.578,2.59c0.385,0.438,1.049,0.657,1.992,0.657c0.89,0,1.976-0.195,3.257-0.587
		c1.282-0.391,2.44-1.082,3.477-2.072c1.036-0.989,1.729-1.939,2.082-2.849c0.352-0.909,0.528-1.83,0.528-2.759
		c0-1.62-0.725-3.025-2.172-4.213c-1.447-1.188-2.981-1.783-4.602-1.783h-0.717l-1.435-0.08c-0.571,0-1.089,0.174-1.554,0.519
		c-0.199-0.319-0.445-0.478-0.737-0.478C71.409,23.207,71.303,23.26,71.237,23.366z"/>
	<path d="M104.316,21.454c0.226-0.172,0.551-0.305,0.976-0.398l1.215-0.259h0.139c0.266,0,0.398,0.339,0.398,1.016l-0.657,2.151
		c-0.212,0.717-0.366,1.402-0.458,2.053c-0.093,0.65-0.14,1.275-0.14,1.873c0,0.611,0.046,1.258,0.14,1.942
		c0.092,0.685,0.332,1.272,0.717,1.764c0.027,0.066,0.04,0.153,0.04,0.258c0,0.134-0.11,0.363-0.329,0.688
		c-0.219,0.326-0.329,0.761-0.329,1.305c0,0.293,0.056,0.767,0.169,1.425c0.112,0.657,0.172,1.063,0.179,1.215
		c0.007,0.153,0.106,0.299,0.299,0.438c0.192,0.14,0.289,0.243,0.289,0.31c0,0.106-0.106,0.198-0.319,0.278
		c-0.053,0.652-0.08,1.05-0.08,1.195c0,0.492,0.066,0.764,0.199,0.817c-0.917,0.372-1.601,0.558-2.052,0.558
		c-0.545,0-0.817-0.226-0.817-0.677c0-0.133,0.046-0.325,0.14-0.577c-0.04-0.08-0.06-0.186-0.06-0.319
		c0-0.252,0.037-0.452,0.11-0.599c0.073-0.145,0.109-0.291,0.109-0.438c0-0.266-0.04-0.637-0.12-1.115
		c-0.08-0.479-0.326-0.717-0.737-0.717c-0.306,0-0.877,0.378-1.713,1.135c-1.262,1.115-2.378,1.919-3.347,2.41
		c-0.412,0.146-0.684,0.286-0.816,0.418c-1.886,0.292-2.869,0.438-2.949,0.438c-0.332,0-0.76-0.189-1.285-0.568
		c-0.524-0.378-0.95-0.753-1.275-1.125c-0.325-0.372-0.611-0.947-0.856-1.724c-0.246-0.777-0.369-1.65-0.369-2.62
		c0-0.424,0.166-1.893,0.498-4.402c0.332-2.51,0.591-4.307,0.777-5.389c0.186-1.082,0.279-1.65,0.279-1.703
		c0-0.106-0.047-0.272-0.14-0.498l-0.159-0.319v-0.08c0-0.093,0.066-0.16,0.199-0.2c0.133-0.039,0.387-0.152,0.763-0.338
		c0.376-0.186,0.67-0.279,0.882-0.279c0.092,0,0.281,0.047,0.564,0.139c0.284,0.094,0.525,0.14,0.723,0.14h0.119
		c0.25,0.199,0.416,0.406,0.495,0.618l-0.418,0.478c-0.757,0.69-1.241,1.712-1.45,3.067l-0.647,4.283
		c-0.249,1.488-0.373,2.55-0.373,3.188c0,1.859,0.362,3.221,1.086,4.084c0.724,0.864,1.437,1.295,2.142,1.295l0.338-0.04l0.598,0.04
		c0.199,0,0.591-0.149,1.175-0.448c0.584-0.298,1.445-0.837,2.58-1.613c1.136-0.777,1.826-1.348,2.072-1.713s0.461-0.83,0.647-1.395
		s0.326-1.211,0.418-1.943c0.093-0.729,0.14-1.54,0.14-2.43c0-2.231-0.05-3.736-0.149-4.513c-0.1-0.777-0.269-1.245-0.508-1.404
		c-0.172-0.133-0.259-0.484-0.259-1.057c0.212-0.08,0.362-0.149,0.448-0.208c0.086-0.06,0.169-0.09,0.249-0.09
		C103.964,21.274,104.13,21.333,104.316,21.454z"/>
	<path d="M129.009,20.138c-0.306,1.434-0.46,3.786-0.46,7.053c0,1.063,0.062,2.729,0.18,5c0.121,2.271,0.18,4.276,0.18,6.016
		c0,3.32-0.326,5.974-0.977,7.958c-0.65,1.985-1.182,2.979-1.594,2.979l-0.118-0.039c-0.347,0.982-1.21,1.643-2.591,1.982
		c-1.381,0.338-2.39,0.508-3.028,0.508c-0.278,0-0.677-0.04-1.195-0.12c-0.517-0.08-0.897-0.12-1.136-0.12
		c-0.278,0-0.472,0.013-0.577,0.04c-0.188,0.186-0.386,0.279-0.599,0.279c-0.159,0-0.286-0.066-0.378-0.199
		c-0.121,0.159-0.327,0.239-0.617,0.239l-0.359-0.04c-0.039,0-0.13,0.02-0.269,0.06c-0.139,0.039-0.229,0.06-0.269,0.06
		c-0.133,0-0.297-0.083-0.489-0.25c-0.192-0.166-0.288-0.447-0.288-0.846c0-0.227,0.023-0.506,0.069-0.838
		c0.047-0.332,0.07-0.558,0.07-0.676v-0.439c0-0.16,0.092-0.352,0.278-0.578h0.159c0.28,0,0.717,0.179,1.316,0.539
		c1.42,0.836,2.875,1.254,4.362,1.254c1.156,0,2.065-0.233,2.729-0.697c0.824-0.041,1.262-0.313,1.314-0.817
		c0.227-0.093,0.62-0.767,1.186-2.021c0.564-1.256,0.848-3.178,0.848-5.768V40.08c-0.201-0.345-0.553-0.518-1.057-0.518
		c-0.266,0-0.591,0.04-0.977,0.119c-0.385,0.08-0.744,0.12-1.075,0.12c-0.571,0-1.413-0.069-2.52-0.209
		c-1.109-0.139-1.98-0.295-2.609-0.468c-0.631-0.173-1.402-0.531-2.311-1.076c-0.911-0.544-1.558-1.096-1.943-1.654
		c-0.386-0.558-0.697-1.208-0.937-1.952s-0.358-1.514-0.358-2.311c0-1.527,0.415-2.958,1.245-4.294
		c0.83-1.334,2.028-2.486,3.596-3.456c0.133-0.04,0.251-0.146,0.359-0.319c0.264-0.452,1.294-0.876,3.087-1.275l2.351-0.617h0.04
		c0.172,0,0.977-0.272,2.411-0.817l0.277,0.339c0.093-0.212,0.14-0.664,0.14-1.355v-0.896h0.359
		C128.059,19.441,128.782,19.674,129.009,20.138z M125.164,36.833c0.039,0.159,0.18,0.239,0.418,0.239
		c0.756,0,1.135-0.87,1.135-2.61l-0.338-9.145l0.099-0.657c0-0.917-0.632-1.374-1.892-1.374c-0.944,0-2.069,0.172-3.377,0.517
		c-1.308,0.346-2.488,1.013-3.536,2.002c-1.05,0.99-1.756,1.949-2.122,2.879c-0.366,0.93-0.549,1.846-0.549,2.749
		c0,1.195,0.393,2.258,1.177,3.188c0.783,0.93,1.745,1.66,2.888,2.191c1.142,0.531,2.794,0.797,4.96,0.797
		c0.146,0,0.299-0.026,0.458-0.08S124.871,37.245,125.164,36.833z"/>
	<path d="M144.297,29.482c1.035,0.93,1.555,2.045,1.555,3.347c0,1.687-0.522,3.217-1.564,4.592c-1.043,1.374-2.388,2.194-4.035,2.46
		c-0.357,0-0.863,0.027-1.514,0.08c-0.491,0.199-1.01,0.299-1.554,0.299c-0.718,0-1.282-0.146-1.692-0.439
		c-0.413-0.292-0.619-0.87-0.619-1.733c0-0.252,0.014-0.444,0.041-0.578h0.158c0.266,0,0.519,0.07,0.758,0.209
		c0.238,0.14,0.391,0.209,0.459,0.209l0.118-0.04c0.452,0.438,1.216,0.657,2.292,0.657c1.021,0,1.951-0.182,2.789-0.548
		c0.836-0.365,1.457-0.974,1.861-1.824c0.406-0.851,0.608-1.616,0.608-2.293c0-0.984-0.375-1.802-1.125-2.453
		c-0.749-0.652-2.44-1.38-5.07-2.185c-0.399-0.066-0.657-0.152-0.777-0.259l-0.917-0.797c-0.49-0.411-0.81-0.823-0.955-1.234
		l-0.199-0.618c0-2.098,0.607-3.589,1.822-4.473c1.215-0.883,3.311-1.325,6.285-1.325l1.115,0.06c0.066,0,0.2-0.033,0.398-0.099
		c0.213,0.212,0.318,0.511,0.318,0.896c0,0.438-0.072,0.854-0.219,1.245c-0.146,0.392-0.298,0.621-0.457,0.687
		c-0.121-0.239-0.26-0.418-0.419-0.538h-0.04c-0.039,0-0.1,0.023-0.179,0.069c-0.079,0.047-0.14,0.077-0.18,0.09
		c-0.624-0.704-1.401-1.056-2.331-1.056c-1.793,0-2.975,0.343-3.545,1.027c-0.572,0.685-0.857,1.446-0.857,2.283
		c-0.002,1.21,0.961,2.04,2.889,2.49c1.407,0.344,2.557,0.698,3.446,1.063C143.852,29.12,144.297,29.362,144.297,29.482z"/>
</g>
</svg>
