<?xml version="1.0" encoding="utf-8"?>
<!-- Generator: Adobe Illustrator 16.0.3, SVG Export Plug-In . SVG Version: 6.00 Build 0)  -->
<!DOCTYPE svg PUBLIC "-//W3C//DTD SVG 1.1//EN" "http://www.w3.org/Graphics/SVG/1.1/DTD/svg11.dtd">
<svg version="1.1" id="Layer_1" xmlns="http://www.w3.org/2000/svg" xmlns:xlink="http://www.w3.org/1999/xlink" x="0px" y="0px"
	 width="176px" height="168px" viewBox="0 0 176 168" enable-background="new 0 0 176 168" xml:space="preserve">
<g>
	<path fill="#4258A7" stroke="#000000" stroke-miterlimit="10" d="M146.823,77.104c0,25.497-16.678,47.183-59.5,46.167
		c-42.167-1-59.5-20.67-59.5-46.167s26.639-46.167,59.5-46.167C120.184,30.938,146.823,51.607,146.823,77.104z"/>
	<path fill="#586CA6" stroke="#000000" stroke-miterlimit="10" d="M125.823,80.938c0,22-5,36-33.333,36.334
		c-19.237,0.227-39.052-12.117-39.334-33c-0.333-24.667,11.334-42,35.667-42C108.061,42.271,125.823,60.053,125.823,80.938z"/>
	<path fill="#FFFFFF" stroke="#000000" stroke-miterlimit="10" d="M96.49,87.604c0,12.15-9.065,21.5-21.584,21.5
		s-22.75-8.35-22.75-20.5s10.333-24.667,19.5-24.75C84.174,63.74,96.49,75.454,96.49,87.604z"/>
	<path fill="#FFFFFF" stroke="#000000" stroke-miterlimit="10" d="M101.265,84.048c0,11.543,8.611,20.425,20.504,20.425
		s21.612-7.932,21.612-19.475s-9.816-23.434-18.524-23.513C112.964,61.378,101.265,72.506,101.265,84.048z"/>
	<ellipse stroke="#000000" stroke-miterlimit="10" cx="80.657" cy="84.604" rx="1.833" ry="1.667"/>
	<circle stroke="#000000" stroke-miterlimit="10" cx="125.823" cy="83.604" r="1.9"/>
	<path stroke="#000000" stroke-linecap="round" stroke-linejoin="round" stroke-miterlimit="10" d="M66.322,56.673
		c0,0,2.523-5.399,2.082-11.988c-0.55-8.188-11.906-30.086-32.014-37.347C71.512,30.499,66.322,56.673,66.322,56.673z"/>
	<path stroke="#000000" stroke-linecap="round" stroke-linejoin="round" stroke-miterlimit="10" d="M103.99,49.438
		c0,0,13.407-15.385,18.333-16.833c11.333-3.333,26.5,1.167,35,6c-12.133-4.235-24.368-5.824-32.333-3.833
		C116.99,36.771,103.99,49.438,103.99,49.438z"/>
	<path stroke="#000000" stroke-linecap="round" stroke-linejoin="round" stroke-miterlimit="10" d="M146.822,82.438
		c5.459,1.167,12.271,14.417,14.668,25.334c2.729,0.208,7.104,0.458,9.166,2.166c-8.813-0.708-9.167,0.334-11.834,0.334
		c-2.291-10.479-7.77-23.063-12.416-24.792L146.822,82.438z"/>
	<path stroke="#000000" stroke-linecap="round" stroke-linejoin="round" stroke-miterlimit="10" d="M143.844,94.667
		c6.438,3.5,9.25,22.688,9.125,28c1.625,0.625,8.625,2.438,9.063,4.375c-5.188-1.563-10.938-2.563-12.5-2.313
		c-0.313-14.188-3.938-25.375-6.938-26.813C142.781,96.792,143.844,94.667,143.844,94.667z"/>
	<path fill="none" stroke="#000000" stroke-miterlimit="10" d="M152.969,122.667"/>
	<line fill="none" stroke="#000000" stroke-miterlimit="10" x1="142.594" y1="97.917" x2="143.844" y2="94.667"/>
	<path stroke="#000000" stroke-linecap="round" stroke-linejoin="round" stroke-miterlimit="10" d="M137.031,106.417
		c6.688,5.563,6.688,25.75,3.375,35.5c-0.875,0.875,7.313,3.875,8.5,8c-5.063-3.5-11.25-6.125-12.563-6.125
		c3.063-13.938,4.5-30.563-1.813-34.938C135.031,108.354,136.281,107.417,137.031,106.417z"/>
	<path stroke="#000000" stroke-linecap="round" stroke-linejoin="round" stroke-miterlimit="10" d="M46.156,101.854
		c-15.5,17.875-10.5,38.125-3.625,49.625c-3.625,3.25-6.875,7.5-6.875,9c3.5-2.75,8.75-8.375,10.625-8.375
		C37.531,138.729,37.031,121.979,46.156,101.854z"/>
	<path fill="none" stroke="#000000" stroke-miterlimit="10" d="M42.031,92.229"/>
	<path fill="none" stroke="#000000" stroke-miterlimit="10" d="M26.406,134.729"/>
	<path fill="none" stroke="#000000" stroke-miterlimit="10" d="M42.031,92.229"/>
	<path fill="none" stroke="#000000" stroke-miterlimit="10" d="M31.656,136.104"/>
	<path fill="none" stroke="#000000" stroke-miterlimit="10" d="M26.406,134.729"/>
	<path fill="none" stroke="#000000" stroke-miterlimit="10" d="M42.031,92.229"/>
	<path stroke="#000000" stroke-linecap="round" stroke-linejoin="round" stroke-miterlimit="10" d="M42.031,92.229
		c-14.625,8.875-19.5,26.75-16,42.625c-2.313,2.5-5.625,2.063-8.375,6.5c4.438-2.563,8-4.063,12.25-4.75
		C28.031,120.229,25.906,109.729,42.031,92.229z"/>
	<path stroke="#000000" stroke-linecap="round" stroke-linejoin="round" stroke-miterlimit="10" d="M37.906,84.479
		c-21.625,8.813-22.688,27.063-23.313,37.438c-1.75,1.438-5.938,1.313-8.625,4.313c4.063-0.438,8.375-2.063,11.938-2.438
		C17.594,113.917,18.344,98.604,37.906,84.479z"/>
	<path stroke="#000000" stroke-miterlimit="10" d="M87.281,117.104c-0.083,2.063,0.667,4.001,2.375,4.875
		c-0.313-1.979-0.813-3.708-0.541-4.729C88.573,117.251,87.761,117.105,87.281,117.104z"/>
	<path stroke="#000000" stroke-miterlimit="10" d="M109.678,114.626c0.52,1.167-0.563,3.875-1.084,4.479
		c-0.396-0.979-0.604-3-0.75-3.75C108.594,114.98,109.24,114.688,109.678,114.626z"/>
</g>
</svg>
