<?xml version="1.0" encoding="utf-8"?>
<!-- Generator: Adobe Illustrator 16.0.3, SVG Export Plug-In . SVG Version: 6.00 Build 0)  -->
<!DOCTYPE svg PUBLIC "-//W3C//DTD SVG 1.1//EN" "http://www.w3.org/Graphics/SVG/1.1/DTD/svg11.dtd">
<svg version="1.1" id="Layer_1" xmlns="http://www.w3.org/2000/svg" xmlns:xlink="http://www.w3.org/1999/xlink" x="0px" y="0px"
	 width="171.333px" height="136px" viewBox="0 0 171.333 136" enable-background="new 0 0 171.333 136" xml:space="preserve">
<g>
	<path fill="#52A045" stroke="#000000" stroke-miterlimit="10" d="M27.135,86.313c0-25.497,16.678-47.183,59.5-46.167
		c42.167,1,59.5,20.67,59.5,46.167s-26.639,46.167-59.5,46.167C53.775,132.479,27.135,111.81,27.135,86.313z"/>
	<path fill="#719E64" stroke="#000000" stroke-miterlimit="10" d="M48.135,82.479c0-22,5-36,33.333-36.334
		c19.237-0.227,39.052,12.117,39.334,33c0.333,24.667-11.334,42-35.667,42C65.898,121.146,48.135,103.364,48.135,82.479z"/>
	<path fill="#FFFFFF" stroke="#000000" stroke-miterlimit="10" d="M77.468,75.813c0-12.15,9.065-21.5,21.584-21.5
		s22.75,8.35,22.75,20.5s-10.333,24.667-19.5,24.75C89.785,99.677,77.468,87.963,77.468,75.813z"/>
	<path fill="#FFFFFF" stroke="#000000" stroke-miterlimit="10" d="M72.694,79.369c0-11.543-8.611-20.425-20.504-20.425
		s-21.612,7.932-21.612,19.475s9.816,23.434,18.524,23.513C60.995,102.039,72.694,90.911,72.694,79.369z"/>
	<path stroke="#000000" stroke-linecap="round" stroke-linejoin="round" stroke-miterlimit="10" d="M98.906,112.188
		c0,0,2.996,5.152,8.66,8.546c7.041,4.218,31.507,7.372,48.936-5.007C117.45,131.377,98.906,112.188,98.906,112.188z"/>
	<path stroke="#000000" stroke-linecap="round" stroke-linejoin="round" stroke-miterlimit="10" d="M69.968,113.979
		c0,0-13.407,15.385-18.333,16.833c-11.333,3.333-26.5-1.167-35-6c12.133,4.235,24.368,5.824,32.333,3.833
		C56.968,126.646,69.968,113.979,69.968,113.979z"/>
	<path stroke="#000000" stroke-linecap="round" stroke-linejoin="round" stroke-miterlimit="10" d="M27.136,80.979
		c-5.459-1.167-12.271-14.417-14.668-25.334c-2.729-0.208-7.104-0.458-9.166-2.166c8.813,0.708,9.167-0.334,11.834-0.334
		c2.291,10.479,7.77,23.063,12.416,24.792L27.136,80.979z"/>
	<path stroke="#000000" stroke-linecap="round" stroke-linejoin="round" stroke-miterlimit="10" d="M30.115,68.75
		c-6.438-3.5-9.25-22.688-9.125-28c-1.625-0.625-8.625-2.438-9.063-4.375c5.188,1.563,10.938,2.563,12.5,2.313
		c0.313,14.188,3.938,25.375,6.938,26.813C31.177,66.625,30.115,68.75,30.115,68.75z"/>
	<path fill="none" stroke="#000000" stroke-miterlimit="10" d="M20.99,40.75"/>
	<line fill="none" stroke="#000000" stroke-miterlimit="10" x1="31.365" y1="65.5" x2="30.115" y2="68.75"/>
	<path stroke="#000000" stroke-linecap="round" stroke-linejoin="round" stroke-miterlimit="10" d="M36.927,57
		c-6.688-5.563-6.688-25.75-3.375-35.5c0.875-0.875-7.313-3.875-8.5-8c5.063,3.5,11.25,6.125,12.563,6.125
		c-3.063,13.938-4.5,30.563,1.813,34.938C38.927,55.063,37.677,56,36.927,57z"/>
	<path stroke="#000000" stroke-linecap="round" stroke-linejoin="round" stroke-miterlimit="10" d="M127.802,61.563
		c15.5-17.875,10.5-38.125,3.625-49.625c3.625-3.25,6.875-7.5,6.875-9c-3.5,2.75-8.75,8.375-10.625,8.375
		C136.427,24.688,136.927,41.438,127.802,61.563z"/>
	<path fill="none" stroke="#000000" stroke-miterlimit="10" d="M131.927,71.188"/>
	<path fill="none" stroke="#000000" stroke-miterlimit="10" d="M147.552,28.688"/>
	<path fill="none" stroke="#000000" stroke-miterlimit="10" d="M131.927,71.188"/>
	<path fill="none" stroke="#000000" stroke-miterlimit="10" d="M142.302,27.313"/>
	<path fill="none" stroke="#000000" stroke-miterlimit="10" d="M147.552,28.688"/>
	<path fill="none" stroke="#000000" stroke-miterlimit="10" d="M131.927,71.188"/>
	<path stroke="#000000" stroke-linecap="round" stroke-linejoin="round" stroke-miterlimit="10" d="M131.927,71.188
		c14.625-8.875,19.5-26.75,16-42.625c2.313-2.5,5.625-2.063,8.375-6.5c-4.438,2.563-8,4.063-12.25,4.75
		C145.927,43.188,148.052,53.688,131.927,71.188z"/>
	<path stroke="#000000" stroke-linecap="round" stroke-linejoin="round" stroke-miterlimit="10" d="M136.052,78.938
		c21.625-8.813,22.688-27.063,23.313-37.438c1.75-1.438,5.938-1.313,8.625-4.313c-4.063,0.438-8.375,2.063-11.938,2.438
		C156.365,49.5,155.615,64.813,136.052,78.938z"/>
	<path stroke="#000000" stroke-miterlimit="10" d="M86.677,46.313c0.083-2.063-0.667-4.001-2.375-4.875
		c0.313,1.979,0.813,3.708,0.541,4.729C85.385,46.166,86.198,46.312,86.677,46.313z"/>
	<path stroke="#000000" stroke-miterlimit="10" d="M64.281,48.791c-0.52-1.167,0.563-3.875,1.084-4.479
		c0.396,0.979,0.604,3,0.75,3.75C65.365,48.437,64.718,48.729,64.281,48.791z"/>
	<g>
		<line fill="none" stroke="#000000" stroke-miterlimit="10" x1="42.667" y1="75.667" x2="54.667" y2="84.667"/>
		<line fill="none" stroke="#000000" stroke-width="2" stroke-miterlimit="10" x1="54.333" y1="74.333" x2="44" y2="84.333"/>
	</g>
	<g>
		<line fill="none" stroke="#000000" stroke-miterlimit="10" x1="99" y1="74" x2="87" y2="83"/>
		<line fill="none" stroke="#000000" stroke-width="2" stroke-miterlimit="10" x1="87.334" y1="72.666" x2="97.667" y2="82.666"/>
	</g>
</g>
</svg>
