<?xml version="1.0" encoding="utf-8"?>
<!-- Generator: Adobe Illustrator 16.0.3, SVG Export Plug-In . SVG Version: 6.00 Build 0)  -->
<!DOCTYPE svg PUBLIC "-//W3C//DTD SVG 1.1//EN" "http://www.w3.org/Graphics/SVG/1.1/DTD/svg11.dtd">
<svg version="1.1" id="Layer_1" xmlns="http://www.w3.org/2000/svg" xmlns:xlink="http://www.w3.org/1999/xlink" x="0px" y="0px"
	 width="39.6px" height="36px" viewBox="0 0 39.6 36" enable-background="new 0 0 39.6 36" xml:space="preserve">
<g>
	<path fill="#ED1D24" stroke="#000000" stroke-miterlimit="10" d="M32.902,16.874c0,5.573-3.646,10.314-13.006,10.092
		C10.679,26.747,6.89,22.447,6.89,16.874S12.713,6.782,19.896,6.782S32.902,11.301,32.902,16.874z"/>
	<path fill="#EA4450" stroke="#000000" stroke-miterlimit="10" d="M28.312,17.712c0,4.81-1.093,7.869-7.286,7.942
		c-4.205,0.05-8.537-2.648-8.598-7.213c-0.073-5.392,2.478-9.181,7.797-9.181C24.429,9.26,28.312,13.146,28.312,17.712z"/>
	<path fill="#FFFFFF" stroke="#000000" stroke-miterlimit="10" d="M21.9,19.17c0,2.655-1.982,4.699-4.719,4.699
		c-2.736,0-4.973-1.825-4.973-4.481c0-2.656,2.259-5.392,4.263-5.41C19.208,13.953,21.9,16.514,21.9,19.17z"/>
	<path fill="#FFFFFF" stroke="#000000" stroke-miterlimit="10" d="M22.943,18.392c0,2.523,1.883,4.464,4.482,4.464
		s4.725-1.733,4.725-4.257s-2.146-5.123-4.05-5.14C25.501,13.437,22.943,15.869,22.943,18.392z"/>
	<ellipse stroke="#000000" stroke-miterlimit="10" cx="18.439" cy="18.514" rx="0.401" ry="0.364"/>
	<circle stroke="#000000" stroke-miterlimit="10" cx="28.312" cy="18.295" r="0.416"/>
	<path stroke="#000000" stroke-linecap="round" stroke-linejoin="round" stroke-miterlimit="10" d="M16.289,10.936
		c0,0-0.359-1.252-0.036-2.66c0.4-1.749,3.606-6.084,8.197-6.958C16.071,5.106,16.289,10.936,16.289,10.936z"/>
	<path stroke="#000000" stroke-linecap="round" stroke-linejoin="round" stroke-miterlimit="10" d="M23.539,10.826
		c0,0,2.931-3.363,4.008-3.68c2.478-0.729,5.793,0.255,7.651,1.312c-2.652-0.926-5.327-1.273-7.068-0.838
		C26.381,8.058,23.539,10.826,23.539,10.826z"/>
	<path stroke="#000000" stroke-linecap="round" stroke-linejoin="round" stroke-miterlimit="10" d="M32.902,18.04
		c1.193,0.255,2.683,3.151,3.206,5.538c0.597,0.045,1.553,0.1,2.004,0.474c-1.927-0.155-2.004,0.072-2.587,0.072
		c-0.501-2.29-1.698-5.041-2.714-5.419L32.902,18.04z"/>
	<path stroke="#000000" stroke-linecap="round" stroke-linejoin="round" stroke-miterlimit="10" d="M32.251,20.713
		c1.407,0.766,2.022,4.96,1.995,6.121c0.355,0.137,1.885,0.533,1.98,0.956c-1.134-0.341-2.391-0.56-2.732-0.505
		c-0.068-3.102-0.86-5.547-1.517-5.861C32.019,21.178,32.251,20.713,32.251,20.713z"/>
	<path fill="none" stroke="#000000" stroke-miterlimit="10" d="M34.246,26.834"/>
	<line fill="none" stroke="#000000" stroke-miterlimit="10" x1="31.978" y1="21.424" x2="32.251" y2="20.713"/>
	<path stroke="#000000" stroke-linecap="round" stroke-linejoin="round" stroke-miterlimit="10" d="M30.762,23.282
		c1.462,1.216,1.462,5.628,0.738,7.76c-0.191,0.191,1.599,0.847,1.857,1.749c-1.106-0.766-2.459-1.339-2.746-1.339
		c0.67-3.047,0.984-6.682-0.396-7.638C30.325,23.705,30.598,23.5,30.762,23.282z"/>
	<path stroke="#000000" stroke-linecap="round" stroke-linejoin="round" stroke-miterlimit="10" d="M10.897,22.284
		c-3.388,3.907-2.295,8.334-0.792,10.848c-0.792,0.711-1.502,1.64-1.502,1.968c0.765-0.602,1.913-1.831,2.322-1.831
		C9.012,30.345,8.902,26.684,10.897,22.284z"/>
	<path fill="none" stroke="#000000" stroke-miterlimit="10" d="M9.996,20.181"/>
	<path fill="none" stroke="#000000" stroke-miterlimit="10" d="M6.58,29.471"/>
	<path fill="none" stroke="#000000" stroke-miterlimit="10" d="M9.996,20.181"/>
	<path fill="none" stroke="#000000" stroke-miterlimit="10" d="M7.728,29.771"/>
	<path fill="none" stroke="#000000" stroke-miterlimit="10" d="M6.58,29.471"/>
	<path fill="none" stroke="#000000" stroke-miterlimit="10" d="M9.996,20.181"/>
	<path stroke="#000000" stroke-linecap="round" stroke-linejoin="round" stroke-miterlimit="10" d="M9.996,20.181
		c-3.197,1.939-4.263,5.848-3.498,9.317c-0.506,0.547-1.23,0.451-1.831,1.421c0.97-0.561,1.749-0.888,2.678-1.038
		C6.935,26.301,6.471,24.006,9.996,20.181z"/>
	<path stroke="#000000" stroke-linecap="round" stroke-linejoin="round" stroke-miterlimit="10" d="M9.094,18.486
		c-4.727,1.927-4.959,5.916-5.096,8.184c-0.382,0.314-1.298,0.287-1.885,0.942C3,27.517,3.943,27.162,4.722,27.08
		C4.653,24.921,4.817,21.574,9.094,18.486z"/>
	<path stroke="#000000" stroke-miterlimit="10" d="M19.887,25.618c-0.018,0.45,0.146,0.874,0.52,1.065
		c-0.068-0.433-0.178-0.811-0.119-1.034C20.169,25.65,19.992,25.618,19.887,25.618z"/>
	<path stroke="#000000" stroke-miterlimit="10" d="M24.782,25.076c0.114,0.255-0.122,0.847-0.236,0.979
		c-0.087-0.214-0.132-0.656-0.164-0.82C24.546,25.153,24.687,25.09,24.782,25.076z"/>
</g>
</svg>
