<?xml version="1.0" standalone="no"?>
<!DOCTYPE svg PUBLIC "-//W3C//DTD SVG 20010904//EN"
 "http://www.w3.org/TR/2001/REC-SVG-20010904/DTD/svg10.dtd">
<svg version="1.0" xmlns="http://www.w3.org/2000/svg"
 width="640.000000pt" height="640.000000pt" viewBox="0 0 640.000000 640.000000"
 preserveAspectRatio="xMidYMid meet">
<metadata>
Created by potrace 1.11, written by Peter Selinger 2001-2013
</metadata>
<g transform="translate(0.000000,640.000000) scale(0.100000,-0.100000)"
fill="#000000" stroke="none">
<path d="M1281 5966 c-43 -46 -29 -100 36 -141 26 -16 50 -32 53 -35 3 -3 21
-17 40 -30 19 -14 40 -28 45 -32 6 -5 28 -22 50 -39 149 -113 374 -337 473
-471 40 -54 72 -102 72 -107 0 -5 4 -11 9 -13 5 -1 25 -31 45 -66 l36 -63 -38
-15 c-20 -9 -55 -24 -78 -35 -22 -10 -46 -19 -52 -19 -7 0 -12 -4 -12 -10 0
-5 -6 -10 -12 -10 -14 0 -243 -134 -264 -154 -6 -6 -22 -18 -34 -26 -78 -51
-287 -246 -358 -334 -32 -40 -125 -172 -130 -186 -3 -8 -8 -17 -12 -20 -16
-13 -126 -258 -136 -305 -1 -5 -12 -46 -23 -90 -28 -113 -35 -181 -35 -335 0
-137 5 -203 25 -317 l11 -63 -34 -27 c-29 -24 -132 -129 -170 -173 -29 -33
-108 -160 -140 -225 -28 -56 -75 -178 -84 -217 -1 -5 -2 -9 -3 -10 -2 -2 -5
-14 -7 -27 -2 -14 -11 -50 -18 -80 -14 -54 -17 -76 -31 -186 -12 -98 -14 -120
-14 -157 -1 -36 -2 -37 -68 -59 -97 -31 -154 -62 -202 -108 -35 -34 -42 -47
-40 -73 2 -20 13 -42 28 -57 23 -21 32 -22 86 -17 72 7 102 13 173 35 18 5 35
10 37 10 24 4 38 6 95 19 30 6 66 13 80 16 74 13 81 29 85 217 6 268 57 458
180 673 15 28 32 55 36 60 5 6 28 37 52 68 l43 56 30 -64 30 -64 -20 -33 c-11
-17 -23 -34 -27 -37 -9 -7 -44 -67 -70 -120 -27 -56 -76 -163 -77 -170 0 -3
-5 -17 -11 -33 -6 -15 -13 -39 -15 -52 -3 -14 -7 -28 -10 -33 -3 -5 -8 -24
-11 -43 -3 -19 -8 -42 -11 -52 -3 -11 -8 -31 -10 -45 -2 -15 -7 -49 -11 -77
-4 -27 -7 -120 -7 -205 -1 -141 4 -208 20 -296 6 -30 3 -32 -67 -69 -40 -20
-77 -41 -83 -46 -123 -100 -159 -179 -105 -231 33 -32 67 -30 138 10 69 40
146 76 181 87 3 1 37 11 76 23 39 12 78 22 87 22 28 0 64 21 74 44 10 20 9 85
-1 136 -5 26 -11 90 -23 225 -13 149 -8 362 11 443 20 88 52 186 82 251 l35
76 60 -63 c32 -35 59 -65 59 -66 0 -2 -15 -36 -34 -77 -119 -259 -155 -564
-101 -868 9 -52 20 -102 25 -112 5 -9 7 -18 5 -21 -2 -2 12 -49 31 -103 20
-55 38 -109 42 -120 3 -11 23 -53 44 -94 l38 -75 -22 -25 c-13 -14 -33 -36
-45 -49 -44 -47 -104 -131 -128 -178 -32 -63 -32 -108 0 -139 30 -31 72 -32
111 -2 28 20 155 131 193 167 42 41 119 98 140 105 58 18 82 76 52 123 -66
105 -149 285 -166 362 -1 3 -7 23 -13 45 -6 22 -14 56 -17 75 -3 19 -7 46 -10
60 -16 85 -21 299 -11 390 12 95 27 185 39 235 3 11 10 42 17 69 6 27 13 53
16 57 3 5 27 -7 54 -26 28 -19 52 -35 55 -35 2 0 42 -21 87 -46 46 -25 84 -45
86 -44 1 0 18 -6 37 -15 75 -33 101 -43 125 -50 14 -3 34 -10 45 -15 23 -11
217 -67 255 -74 14 -2 32 -7 40 -10 8 -3 29 -7 45 -10 44 -7 155 -26 190 -32
49 -9 164 -21 265 -29 53 -4 387 -17 425 -17 11 0 137 9 240 18 90 7 140 12
182 19 18 3 50 8 71 11 20 3 44 7 52 9 8 2 30 7 49 10 153 26 440 125 569 197
121 68 164 96 259 169 l61 48 15 -22 c42 -66 66 -221 62 -415 -2 -81 -6 -160
-8 -177 -3 -16 -8 -59 -12 -95 -3 -36 -8 -72 -10 -80 -2 -8 -7 -33 -10 -55 -3
-23 -8 -52 -10 -65 -3 -14 -7 -38 -10 -55 -3 -16 -11 -55 -17 -85 -21 -103 -9
-130 70 -154 86 -26 213 -86 307 -144 129 -80 153 -85 195 -40 59 63 -20 187
-193 300 -54 36 -76 56 -72 67 8 27 26 115 30 144 2 16 6 40 9 55 13 63 18
137 19 302 1 227 -11 329 -57 505 -9 34 -76 175 -98 206 -9 13 -1 31 40 94
l51 77 16 -38 c71 -169 118 -411 131 -669 7 -157 17 -176 94 -181 83 -5 216
-29 310 -55 119 -33 152 -34 178 -6 47 50 16 139 -60 173 -21 9 -38 20 -38 23
0 4 -26 15 -57 26 -32 10 -64 23 -70 28 -7 5 -13 6 -13 2 0 -4 -6 -2 -13 4 -8
6 -16 9 -19 6 -13 -13 -27 26 -32 90 -3 39 -7 81 -10 95 -2 14 -8 48 -12 75
-4 28 -8 55 -10 60 -1 6 -5 26 -8 45 -40 221 -138 470 -222 564 -24 27 -34 47
-31 60 17 69 31 112 37 120 11 12 70 -84 134 -216 67 -141 157 -403 169 -491
2 -16 16 -44 31 -64 l28 -35 67 7 c36 4 75 9 86 11 27 6 244 5 273 0 33 -7 68
9 88 39 14 22 15 32 6 64 -10 31 -21 42 -66 65 -59 30 -155 55 -218 58 -30 1
-42 6 -48 22 -14 34 -23 60 -25 71 -9 36 -62 183 -95 259 -44 103 -117 246
-147 285 -7 9 -33 44 -58 78 -47 64 -124 138 -160 155 -19 8 -20 18 -20 127 1
214 -41 410 -130 604 -25 57 -93 178 -104 187 -3 3 -12 17 -20 32 -8 15 -21
36 -30 45 -9 10 -42 50 -73 89 -72 88 -218 228 -304 290 -81 58 -144 101 -192
130 l-54 32 49 15 c26 9 66 19 88 23 54 10 347 10 415 1 112 -16 127 -18 200
-33 136 -27 304 -73 400 -108 41 -16 77 -12 101 10 39 35 31 108 -14 130 -12
6 -58 29 -102 51 -98 49 -240 103 -360 136 -80 22 -120 32 -230 52 -143 27
-390 27 -530 0 -88 -17 -179 -63 -245 -122 -24 -22 -60 -30 -73 -16 -7 6 -100
42 -127 48 -8 1 -43 12 -78 23 -81 27 -254 65 -352 78 -25 3 -56 7 -70 10 -70
11 -191 18 -335 18 -269 0 -393 -14 -639 -70 -107 -24 -136 -25 -136 -4 0 15
-75 133 -142 223 -32 43 -58 80 -58 82 0 11 -209 228 -280 290 -155 136 -473
315 -560 315 -15 0 -36 -10 -49 -24z"/>
</g>
</svg>
